<svg xmlns="http://www.w3.org/2000/svg" width="40" height="40" viewBox="0 0 512 512">
  <rect width="512" height="512" rx="106" fill="#a50064"/>
  <g fill="#fff">
    <path d="M153 145c-28 0-50 22-50 50v122c0 28 22 50 50 50s50-22 50-50V195c0-28-22-50-50-50zm14 172c0 8-6 14-14 14s-14-6-14-14V195c0-8 6-14 14-14s14 6 14 14v122zM251 145c-28 0-50 22-50 50v122c0 28 22 50 50 50s50-22 50-50V195c0-28-22-50-50-50zm14 172c0 8-6 14-14 14s-14-6-14-14V195c0-8 6-14 14-14s14 6 14 14v122zM349 145c-28 0-50 22-50 50v122c0 28 22 50 50 50s50-22 50-50V195c0-28-22-50-50-50zm14 172c0 8-6 14-14 14s-14-6-14-14V195c0-8 6-14 14-14s14 6 14 14v122z"/>
  </g>
</svg>
